HIERARCHY
ROOT Hips
{
 OFFSET 0.000000 0.000000 0.000000
 CHANNELS 6 Xposition Yposition Zposition Yrotation Xrotation Zrotation
 JOINT Chest
 {
  OFFSET 0.000000 9.585900 0.002600
  CHANNELS 3 Yrotation Xrotation Zrotation
  JOINT Chest2
  {
   OFFSET 0.000000 9.601200 -0.005300
   CHANNELS 3 Yrotation Xrotation Zrotation
   JOINT Chest3
   {
    OFFSET 0.000000 9.561800 0.000000
    CHANNELS 3 Yrotation Xrotation Zrotation
    JOINT Chest4
    {
     OFFSET 0.000000 9.552100 0.000000
     CHANNELS 3 Yrotation Xrotation Zrotation
     JOINT Neck
     {
      OFFSET 0.000000 14.453000 0.000000
      CHANNELS 3 Yrotation Xrotation Zrotation
      JOINT Head
      {
       OFFSET 0.000000 8.936500 -0.011300
       CHANNELS 3 Yrotation Xrotation Zrotation
       End Site
       {
        OFFSET 0.000000 17.073600 -0.006000
       }
      }
     }
     JOINT RightCollar
     {
      OFFSET -2.921100 9.558500 0.000000
      CHANNELS 3 Yrotation Xrotation Zrotation
      JOINT RightShoulder
      {
       OFFSET -13.519700 0.000000 0.000000
       CHANNELS 3 Yrotation Xrotation Zrotation
       JOINT RightElbow
       {
        OFFSET 0.000000 -29.696600 0.000000
        CHANNELS 3 Yrotation Xrotation Zrotation
        JOINT RightWrist
        {
         OFFSET 0.000000 -24.004700 0.000000
         CHANNELS 3 Yrotation Xrotation Zrotation
         End Site
         {
          OFFSET 0.000000 -17.728500 0.000000
         }
        }
       }
      }
     }
     JOINT LeftCollar
     {
      OFFSET 2.921100 9.558500 0.000000
      CHANNELS 3 Yrotation Xrotation Zrotation
      JOINT LeftShoulder
      {
       OFFSET 13.519700 0.000000 0.000000
       CHANNELS 3 Yrotation Xrotation Zrotation
       JOINT LeftElbow
       {
        OFFSET 0.000000 -29.696600 0.000000
        CHANNELS 3 Yrotation Xrotation Zrotation
        JOINT LeftWrist
        {
         OFFSET 0.000000 -24.004700 0.000000
         CHANNELS 3 Yrotation Xrotation Zrotation
         End Site
         {
          OFFSET 0.000000 -17.728500 0.000000
         }
        }
       }
      }
     }
    }
   }
  }
 }
 JOINT RightHip
 {
  OFFSET -7.771700 -0.012900 -0.001300
  CHANNELS 3 Yrotation Xrotation Zrotation
  JOINT RightKnee
  {
   OFFSET 0.000000 -40.869800 0.001200
   CHANNELS 3 Yrotation Xrotation Zrotation
   JOINT RightAnkle
   {
    OFFSET 0.000000 -39.717900 0.002100
    CHANNELS 3 Yrotation Xrotation Zrotation
    JOINT RightToe
    {
     OFFSET 0.000000 -4.965400 11.033500
     CHANNELS 3 Yrotation Xrotation Zrotation
     End Site
     {
      OFFSET 0.000000 -1.423100 5.872300
     }
    }
   }
  }
 }
 JOINT LeftHip
 {
  OFFSET 7.771700 -0.012900 -0.001300
  CHANNELS 3 Yrotation Xrotation Zrotation
  JOINT LeftKnee
  {
   OFFSET 0.000000 -40.869800 0.001200
   CHANNELS 3 Yrotation Xrotation Zrotation
   JOINT LeftAnkle
   {
    OFFSET 0.000000 -39.717900 0.002100
    CHANNELS 3 Yrotation Xrotation Zrotation
    JOINT LeftToe
    {
     OFFSET 0.000000 -4.965400 11.033500
     CHANNELS 3 Yrotation Xrotation Zrotation
     End Site
     {
      OFFSET 0.000000 -1.423100 5.872300
     }
    }
   }
  }
 }
}
MOTION
Frames: 13
Frame Time: 0.008333
0.000000 85.388000 0.000000 0.000000 -5.767877 0.000000 0.000000 11.653817 0.000000 0.000000 -5.885947 0.000000 0.000000 -0.000000 0.000000 0.000000 -0.000000 0.000000 0.000000 12.528835 0.000000 0.000000 0.711642 0.000000 0.000000 -0.000000 0.000000 0.000000 0.000000 -90.000000 0.000000 -2.309062 0.000000 0.000000 2.309062 0.000000 0.000000 -0.000000 0.000000 0.000000 -0.000000 90.000000 0.000000 -2.309062 0.000000 0.000000 2.309062 0.000000 0.000000 8.520406 0.000000 0.000000 1.905762 0.000000 -0.000000 -4.658285 0.000000 0.000000 -0.000000 0.000000 0.000000 8.520406 0.000000 0.000000 1.905762 0.000000 -0.000000 -4.658285 0.000000 0.000000 -0.000000 0.000000
-71.469572 48.319152 20.512744 173.558712 -29.767393 -0.273299 -0.457662 14.522205 1.669464 -0.446408 8.304531 1.503860 -0.521523 10.381845 1.869759 -0.452858 8.306090 1.504666 0.237267 15.431274 -2.270062 1.273917 -7.112145 -4.319831 5.027405 4.570182 -4.373112 -3.621520 -14.375982 -8.888596 53.762463 -68.992097 -39.435775 12.723325 7.362964 -38.797810 -2.046904 1.304578 -3.894682 7.418418 -15.712088 -1.088473 -82.630617 -47.123088 59.045632 -10.212011 18.661326 34.022843 28.882958 -49.585937 -36.107687 -115.914201 66.662831 -104.218624 4.579522 -5.068141 4.893544 0.297589 -1.228505 0.135435 -5.057679 -54.518670 15.036419 99.998779 83.073984 96.595862 -6.515347 -11.665919 -1.175510 0.359589 1.008337 0.172583
-71.470787 48.319854 20.512064 173.558879 -29.770821 -0.272649 -0.456162 14.526098 1.667488 -0.447072 8.304107 1.503281 -0.513362 10.380420 1.870157 -0.453052 8.305980 1.505896 0.236123 15.421333 -2.266059 1.269590 -7.115784 -4.315492 5.019713 4.567753 -4.371950 -3.616106 -14.369163 -8.888004 53.758672 -68.993762 -39.432550 12.722643 7.362634 -38.797385 -2.058303 1.298961 -3.889524 7.423612 -15.710888 -1.086456 -82.623555 -47.126058 59.035219 -10.201022 18.650348 34.024548 28.875141 -49.578286 -36.106662 -115.911508 66.668534 -104.213228 4.587482 -5.078545 4.893108 0.298712 -1.221519 0.132854 -5.053492 -54.514469 15.031070 99.991949 83.071621 96.590244 -6.519161 -11.668451 -1.175688 0.352209 1.008800 0.170173
-71.472347 48.319777 20.512612 173.560957 -29.765120 -0.271981 -0.454030 14.521278 1.663858 -0.446547 8.302071 1.504990 -0.511728 10.380811 1.871251 -0.430400 8.304062 1.499891 0.217537 15.411143 -2.255449 1.257935 -7.161833 -4.296738 4.993155 4.566528 -4.361793 -3.605225 -14.365533 -8.891353 53.740240 -68.996046 -39.422929 12.724461 7.359843 -38.798822 -2.089894 1.289862 -3.870514 7.431952 -15.702297 -1.090292 -82.618741 -47.135375 59.024830 -10.201881 18.649778 34.027814 28.873575 -49.581779 -36.116754 -115.910469 66.674149 -104.211357 4.597099 -5.077468 4.895361 0.299466 -1.222709 0.127202 -5.055590 -54.519781 15.029999 99.972737 83.069689 96.568058 -6.521039 -11.667214 -1.176657 0.346163 1.007173 0.167863
-71.472920 48.319625 20.513180 173.560434 -29.759427 -0.275526 -0.450190 14.516236 1.666221 -0.438614 8.301897 1.506016 -0.513569 10.380106 1.873419 -0.419441 8.307362 1.496276 0.218560 15.389901 -2.249606 1.232061 -7.175639 -4.279067 4.976758 4.552089 -4.355447 -3.597109 -14.355911 -8.895096 53.720835 -68.998389 -39.409761 12.726783 7.357946 -38.800311 -2.110179 1.283121 -3.860238 7.436214 -15.699918 -1.091144 -82.614250 -47.139757 59.021171 -10.204902 18.647941 34.027235 28.872815 -49.588465 -36.118316 -115.910228 66.676477 -104.210651 4.608851 -5.073682 4.892478 0.291668 -1.226238 0.128452 -5.066195 -54.525410 15.040125 99.974719 83.070055 96.570098 -6.527833 -11.666518 -1.181456 0.351542 1.006195 0.169014
-71.473719 48.319537 20.513319 173.562890 -29.755767 -0.278012 -0.450231 14.513432 1.664876 -0.425126 8.306637 1.501947 -0.512270 10.377386 1.877890 -0.418983 8.307828 1.499121 0.211743 15.379545 -2.244793 1.214833 -7.204635 -4.265277 4.966331 4.539051 -4.353146 -3.597212 -14.347895 -8.892682 53.711835 -68.999472 -39.395622 12.726709 7.356481 -38.804458 -2.125494 1.276016 -3.851321 7.439837 -15.702533 -1.092277 -82.607839 -47.142889 59.012289 -10.202719 18.646523 34.024784 28.872929 -49.592602 -36.120341 -115.911013 66.676566 -104.211573 4.607670 -5.067858 4.893769 0.290943 -1.230558 0.128062 -5.074730 -54.529579 15.041502 99.966653 83.070818 96.563229 -6.521256 -11.662638 -1.186408 0.350117 1.003848 0.168959
-71.474354 48.320670 20.511037 173.569841 -29.768169 -0.280851 -0.445872 14.532407 1.661931 -0.422957 8.305007 1.504659 -0.498507 10.381380 1.876207 -0.436796 8.299148 1.507749 0.209285 15.375849 -2.243218 1.206614 -7.220960 -4.259003 4.959525 4.526440 -4.355044 -3.589727 -14.340128 -8.894829 53.689702 -69.001057 -39.363770 12.726277 7.355640 -38.811102 -2.133151 1.272737 -3.849388 7.444654 -15.706120 -1.090754 -82.594370 -47.157450 58.991536 -10.195426 18.641977 34.035551 28.861150 -49.581628 -36.112235 -115.928825 66.678537 -104.230268 4.598813 -5.067312 4.900694 0.290430 -1.234312 0.124041 -5.082100 -54.517641 15.035739 99.992431 83.074327 96.591779 -6.510489 -11.661284 -1.192427 0.347616 0.999837 0.168600
-71.473210 48.320936 20.510333 173.566369 -29.770909 -0.288832 -0.434542 14.537163 1.673203 -0.417955 8.307327 1.503834 -0.504751 10.378167 1.878283 -0.422257 8.305087 1.504780 0.200007 15.360238 -2.237430 1.184175 -7.259531 -4.241884 4.944342 4.507903 -4.354845 -3.579511 -14.333240 -8.901131 53.651699 -69.004813 -39.327950 12.726978 7.356315 -38.815298 -2.153455 1.261550 -3.841410 7.448392 -15.704226 -1.090120 -82.591994 -47.160729 58.986252 -10.193649 18.640388 34.038452 28.856448 -49.585012 -36.097690 -115.935649 66.677389 -104.235662 4.592751 -5.059414 4.903223 0.287162 -1.237124 0.124008 -5.097595 -54.516170 15.048634 100.030361 83.086265 96.640081 -6.493404 -11.657482 -1.209653 0.356730 0.994377 0.171703
-71.473204 48.320390 20.510876 173.571194 -29.764267 -0.293789 -0.435802 14.531194 1.676729 -0.409058 8.311924 1.499919 -0.502295 10.377913 1.883040 -0.420419 8.305998 1.504787 0.192284 15.344899 -2.231873 1.170749 -7.278741 -4.232263 4.937936 4.479211 -4.366189 -3.580861 -14.311196 -8.893002 53.633497 -69.008088 -39.306095 12.727814 7.357793 -38.820931 -2.177923 1.235947 -3.835406 7.455399 -15.686042 -1.087114 -82.584496 -47.169625 58.979404 -10.174849 18.642733 34.053184 28.859081 -49.593362 -36.102597 -115.945718 66.677138 -104.242592 4.586038 -5.051869 4.900302 0.294519 -1.242457 0.127108 -5.113308 -54.525096 15.054020 100.044173 83.085298 96.657168 -6.491178 -11.651503 -1.215750 0.354558 0.991794 0.167661
-71.472069 48.319458 20.512372 173.567325 -29.752496 -0.300748 -0.420285 14.525606 1.683802 -0.407706 8.310171 1.499293 -0.485903 10.383875 1.878116 -0.409981 8.306837 1.503977 0.173371 15.314521 -2.217789 1.156170 -7.279601 -4.215821 4.909147 4.459413 -4.348636 -3.579107 -14.306482 -8.893286 53.627915 -69.011888 -39.291259 12.718758 7.361639 -38.834469 -2.212525 1.217865 -3.813198 7.454069 -15.681956 -1.086298 -82.572193 -47.189988 58.956612 -10.168172 18.641279 34.074491 28.865050 -49.605805 -36.100179 -115.943960 66.684143 -104.234056 4.573643 -5.048529 4.895559 0.303494 -1.240765 0.130306 -5.128063 -54.537203 15.070972 100.036606 83.083746 96.653901 -6.493517 -11.650457 -1.220178 0.355395 0.993865 0.165376
-71.471833 48.318959 20.513276 173.566305 -29.744772 -0.302491 -0.411756 14.522518 1.680824 -0.408847 8.307143 1.504053 -0.486247 10.383635 1.878974 -0.404888 8.307696 1.502524 0.168842 15.299664 -2.216737 1.137136 -7.305486 -4.199290 4.902279 4.450967 -4.344931 -3.577914 -14.301132 -8.894501 53.625732 -69.017696 -39.263233 12.716657 7.366182 -38.865220 -2.224704 1.209823 -3.809009 7.450179 -15.676387 -1.092837 -82.560090 -47.191002 58.942681 -10.168103 18.643727 34.088075 28.865352 -49.612151 -36.099246 -115.933162 66.687524 -104.222035 4.568707 -5.050637 4.894084 0.306855 -1.235682 0.130866 -5.136387 -54.544685 15.076324 100.019905 83.080944 96.638634 -6.495494 -11.648340 -1.221872 0.355122 0.994455 0.162724
-71.472193 48.318966 20.513536 173.565874 -29.741795 -0.299667 -0.407995 14.520672 1.676722 -0.408511 8.306698 1.505319 -0.477204 10.384868 1.877369 -0.408369 8.306669 1.505468 0.161747 15.282110 -2.218382 1.094834 -7.383943 -4.177130 4.897219 4.435199 -4.349029 -3.569861 -14.290838 -8.893218 53.597559 -69.019018 -39.230549 12.717120 7.365510 -38.862760 -2.244292 1.202196 -3.805267 7.459425 -15.671108 -1.092925 -82.553805 -47.195321 58.934183 -10.156087 18.635235 34.098313 28.867205 -49.611926 -36.099708 -115.923179 66.686656 -104.211446 4.561653 -5.057292 4.893482 0.308243 -1.227230 0.132952 -5.152968 -54.545900 15.079189 100.016358 83.071296 96.626504 -6.482194 -11.645108 -1.220958 0.340452 0.993081 0.155432
-71.471981 48.319161 20.513913 173.566001 -29.739224 -0.299589 -0.401169 14.520166 1.674943 -0.405414 8.306399 1.504685 -0.473469 10.384526 1.876545 -0.389045 8.308954 1.495520 0.137895 15.267990 -2.198140 1.064995 -7.434608 -4.167907 4.869542 4.413095 -4.331827 -3.559780 -14.279569 -8.893033 53.574004 -69.018173 -39.208734 12.714867 7.366520 -38.860241 -2.290896 1.176244 -3.783838 7.467584 -15.652937 -1.092089 -82.538333 -47.194557 58.923390 -10.141051 18.626941 34.105690 28.865814 -49.612031 -36.099366 -115.916676 66.690916 -104.205486 4.566593 -5.062034 4.895536 0.291109 -1.222729 0.132391 -5.162229 -54.547550 15.081103 100.004849 83.066525 96.615947 -6.482959 -11.644136 -1.227065 0.340689 0.994212 0.155251
